<svg xmlns="http://www.w3.org/2000/svg" x="0px" y="0px" width="28" height="28" viewBox="0 0 172 172" style=" fill:#000000;"><defs><linearGradient x1="86" y1="73.01938" x2="86" y2="94.12969" gradientUnits="userSpaceOnUse" id="color-1_ve4jBhVVCEkn_gr1"><stop offset="0" stop-color="#dedede"></stop><stop offset="1" stop-color="#cccccc"></stop></linearGradient><linearGradient x1="86" y1="7.83406" x2="86" y2="161.28494" gradientUnits="userSpaceOnUse" id="color-2_ve4jBhVVCEkn_gr2"><stop offset="0" stop-color="#a6a6a6"></stop><stop offset="1" stop-color="#949494"></stop></linearGradient><linearGradient x1="86" y1="7.83406" x2="86" y2="161.28494" gradientUnits="userSpaceOnUse" id="color-3_ve4jBhVVCEkn_gr3"><stop offset="0" stop-color="#a6a6a6"></stop><stop offset="1" stop-color="#949494"></stop></linearGradient><linearGradient x1="110.1875" y1="7.83406" x2="110.1875" y2="161.28494" gradientUnits="userSpaceOnUse" id="color-4_ve4jBhVVCEkn_gr4"><stop offset="0" stop-color="#a6a6a6"></stop><stop offset="1" stop-color="#949494"></stop></linearGradient><linearGradient x1="86.59663" y1="7.83406" x2="86.59663" y2="161.28494" gradientUnits="userSpaceOnUse" id="color-5_ve4jBhVVCEkn_gr5"><stop offset="0" stop-color="#a6a6a6"></stop><stop offset="1" stop-color="#949494"></stop></linearGradient><linearGradient x1="61.8125" y1="7.83406" x2="61.8125" y2="161.28494" gradientUnits="userSpaceOnUse" id="color-6_ve4jBhVVCEkn_gr6"><stop offset="0" stop-color="#a6a6a6"></stop><stop offset="1" stop-color="#949494"></stop></linearGradient></defs><g fill="none" fill-rule="nonzero" stroke="none" stroke-width="1" stroke-linecap="butt" stroke-linejoin="miter" stroke-miterlimit="10" stroke-dasharray="" stroke-dashoffset="0" font-family="none" font-weight="none" font-size="none" text-anchor="none" style="mix-blend-mode: normal"><path d="M0,172v-172h172v172z" fill="none"></path><g><circle cx="32" cy="32" transform="scale(2.6875,2.6875)" r="5" fill="url(#color-1_ve4jBhVVCEkn_gr1)"></circle><path d="M146.46875,71.21875h-4.03394c-1.17712,0 -2.19837,-0.74712 -2.53969,-1.85706c-1.25506,-4.08769 -2.96969,-8.02219 -5.09819,-11.69331c-0.60737,-1.04544 -0.43537,-2.36769 0.41925,-3.21963l3.04494,-3.04763c1.52381,-1.52112 2.36231,-3.5475 2.36231,-5.70287c0,-2.15269 -0.8385,-4.17906 -2.36231,-5.70019l-7.60025,-7.60025c-3.04494,-3.04494 -8.35813,-3.04494 -11.40306,0l-3.44269,3.44c-0.8385,0.84119 -2.10431,1.02394 -3.14975,0.45956c-3.60662,-1.95112 -7.40406,-3.49912 -11.29019,-4.60638c-1.14219,-0.32519 -1.93769,-1.37869 -1.93769,-2.56119v-4.94231c0,-4.44513 -3.61738,-8.0625 -8.0625,-8.0625h-10.75c-4.44513,0 -8.0625,3.61737 -8.0625,8.0625v4.94231c0,1.1825 -0.7955,2.236 -1.935,2.56119c-3.88612,1.10725 -7.68356,2.65525 -11.29019,4.60638c-1.04275,0.56169 -2.31125,0.37894 -3.15244,-0.45956l-3.44,-3.44c-3.04763,-3.04494 -8.35813,-3.04494 -11.40306,0l-7.60294,7.60025c-1.52381,1.52112 -2.36231,3.5475 -2.36231,5.70019c0,2.15537 0.84119,4.18175 2.35963,5.70019l3.04763,3.05031c0.85194,0.85194 1.02394,2.17687 0.41925,3.21963c-2.1285,3.66844 -3.84581,7.60294 -5.09819,11.69062c-0.34131,1.11263 -1.36256,1.85975 -2.53969,1.85975h-4.03394c-4.44513,0 -8.0625,3.61737 -8.0625,8.0625v10.75c0,4.44512 3.61737,8.0625 8.0625,8.0625h3.28412c1.21475,0 2.27362,0.81431 2.57194,1.98069c1.12606,4.386 2.78694,8.62956 4.93156,12.61244c0.55362,1.02931 0.36281,2.28437 -0.47569,3.12019l-2.10162,2.10163c-1.52381,1.52113 -2.36231,3.5475 -2.36231,5.70288c0,2.15269 0.8385,4.17906 2.36231,5.70019l7.60025,7.60025c3.04494,3.04494 8.35813,3.04494 11.40306,0l1.70119,-1.70119c0.85463,-0.85194 2.1715,-1.02662 3.20081,-0.43c4.10113,2.39456 8.48444,4.257 13.02363,5.54163c1.11263,0.31444 1.892,1.36525 1.892,2.55044v2.25213c0,4.44512 3.61737,8.0625 8.0625,8.0625h10.75c4.44512,0 8.0625,-3.61738 8.0625,-8.0625v-2.25213c0,-1.18519 0.77938,-2.236 1.89469,-2.55044c4.53919,-1.28194 8.9225,-3.14437 13.02363,-5.53625c1.02662,-0.602 2.34619,-0.42462 3.20081,0.42731l1.6985,1.70119c3.04762,3.04494 8.35813,3.04494 11.40306,0l7.60025,-7.60025c1.52381,-1.52113 2.36231,-3.5475 2.36231,-5.70019c0,-2.15537 -0.84119,-4.18175 -2.35962,-5.70019l-2.10431,-2.10431c-0.8385,-0.8385 -1.02662,-2.09087 -0.47569,-3.12019c2.14463,-3.98288 3.8055,-8.22912 4.93156,-12.61244c0.29831,-1.16906 1.35719,-1.98069 2.57194,-1.98069h3.28412c4.44512,0 8.0625,-3.61738 8.0625,-8.0625v-10.75c0,-4.44781 -3.61737,-8.06519 -8.0625,-8.06519zM149.15625,90.03125c0,1.4835 -1.20669,2.6875 -2.6875,2.6875h-3.28413c-3.66844,0 -6.86925,2.47519 -7.78031,6.01731c-1.01856,3.96675 -2.51819,7.80181 -4.45856,11.40575c-1.68506,3.13362 -1.12069,6.93913 1.40556,9.46537l2.107,2.107c0.50525,0.50525 0.78475,1.17713 0.78475,1.89738c0,0.71756 -0.2795,1.39213 -0.78744,1.90006l-7.60025,7.60025c-1.01587,1.01319 -2.78694,1.01856 -3.80281,0l-1.70119,-1.70119c-2.57731,-2.57731 -6.56556,-3.10406 -9.70994,-1.27119c-3.70875,2.16344 -7.67012,3.8485 -11.77394,5.00413c-3.41581,0.97019 -5.805,4.14681 -5.805,7.72925v2.25213c0,1.4835 -1.20669,2.6875 -2.6875,2.6875h-10.75c-1.48081,0 -2.6875,-1.204 -2.6875,-2.6875v-2.25213c0,-3.58244 -2.38919,-6.75906 -5.81037,-7.72119c-4.10381,-1.161 -8.06519,-2.84606 -11.77394,-5.0095c-1.25238,-0.72831 -2.63912,-1.08306 -4.0205,-1.08306c-2.08013,0 -4.14144,0.80625 -5.68944,2.35694l-1.70119,1.70119c-1.01319,1.01856 -2.78425,1.01319 -3.80013,0l-7.60025,-7.60025c-0.50794,-0.50794 -0.78744,-1.1825 -0.78744,-1.90006c0,-0.72025 0.2795,-1.39213 0.78744,-1.90006l2.10162,-2.10431c2.52894,-2.52625 3.09331,-6.33175 1.40556,-9.46537c-1.94037,-3.60394 -3.44,-7.44169 -4.45856,-11.40575c-0.91106,-3.54212 -4.10919,-6.01731 -7.78031,-6.01731h-3.27875c-1.48081,0 -2.6875,-1.204 -2.6875,-2.6875v-10.75c0,-1.4835 1.20669,-2.6875 2.6875,-2.6875h4.03394c3.55019,0 6.63544,-2.27363 7.67819,-5.65719c1.13413,-3.69531 2.6875,-7.25088 4.61175,-10.56994c1.8275,-3.15244 1.30612,-7.14875 -1.26581,-9.718l-3.05031,-3.053c-0.50525,-0.50525 -0.78475,-1.17712 -0.78475,-1.89737c0,-0.71756 0.2795,-1.39212 0.78744,-1.90006l7.60294,-7.60025c1.01319,-1.01856 2.78425,-1.01856 3.80013,0l3.44,3.44c2.53162,2.53431 6.35594,3.09331 9.51106,1.38944c3.26263,-1.763 6.69725,-3.16587 10.20712,-4.16563c3.43462,-0.98631 5.83456,-4.16563 5.83456,-7.73731v-4.94231c0,-1.4835 1.20669,-2.6875 2.6875,-2.6875h10.75c1.48081,0 2.6875,1.204 2.6875,2.6875v4.94231c0,3.57169 2.39994,6.751 5.83725,7.73194c3.50987,0.99975 6.94181,2.40263 10.20713,4.16563c3.15512,1.70656 6.97675,1.14756 9.50837,-1.38944l3.44269,-3.44c1.01319,-1.01856 2.78425,-1.01319 3.80013,0l7.60025,7.60025c0.50794,0.50794 0.78744,1.1825 0.78744,1.90006c0,0.72025 -0.2795,1.39213 -0.78744,1.90006l-3.04494,3.05031c-2.57462,2.56925 -3.09331,6.56556 -1.26581,9.718c1.92425,3.31637 3.47494,6.87463 4.61175,10.57262c1.04006,3.38356 4.12531,5.6545 7.6755,5.6545h4.03394c1.48081,0 2.6875,1.204 2.6875,2.6875z" fill="url(#color-2_ve4jBhVVCEkn_gr2)"></path><path d="M69.875,86c0,8.89294 7.23206,16.125 16.125,16.125c8.89294,0 16.125,-7.23206 16.125,-16.125c0,-8.89294 -7.23206,-16.125 -16.125,-16.125c-8.89294,0 -16.125,7.23206 -16.125,16.125zM86,75.25c5.92863,0 10.75,4.82138 10.75,10.75c0,5.92863 -4.82137,10.75 -10.75,10.75c-5.92863,0 -10.75,-4.82137 -10.75,-10.75c0,-5.92863 4.82138,-10.75 10.75,-10.75z" fill="url(#color-3_ve4jBhVVCEkn_gr3)"></path><path d="M94.59731,43.86c-0.78744,-0.14781 -1.60981,0.04569 -2.236,0.55362c-0.6235,0.51331 -0.98631,1.27656 -0.98631,2.08281v16.72431c0,1.1395 0.71756,2.15537 1.79256,2.53162c8.44681,2.9885 14.20075,11.01338 14.319,19.96544c0.01075,0.76325 0.34131,1.48619 0.91644,1.98606l14.25719,12.49956c0.49719,0.43537 1.12606,0.6665 1.77106,0.6665c0.24188,0 0.48375,-0.03225 0.72294,-0.09944c0.87344,-0.24456 1.56681,-0.91106 1.84094,-1.77644c1.33031,-4.20862 2.00487,-8.58119 2.00487,-12.99406c0,-20.36588 -14.4695,-38.08994 -34.40269,-42.14zM122.91281,93.28044l-10.09963,-8.85531c-0.59394,-10.05663 -6.86119,-19.00331 -16.06588,-23.03188v-11.4595c15.75413,4.68969 26.875,19.36075 26.875,36.06625c0.00269,2.451 -0.2365,4.88587 -0.7095,7.28044z" fill="url(#color-4_ve4jBhVVCEkn_gr4)"></path><path d="M105.9735,99.87288c-0.53481,-0.47031 -1.23087,-0.70412 -1.95112,-0.66112c-0.71219,0.04837 -1.376,0.37625 -1.84631,0.91375c-4.09306,4.687 -9.98944,7.3745 -16.17606,7.3745c-5.69212,0 -11.05638,-2.20644 -15.11181,-6.21619c-1.00244,-0.99169 -2.6015,-1.04006 -3.66038,-0.11019l-12.12062,10.62906c-0.55094,0.48375 -0.8815,1.17175 -0.91375,1.90275c-0.03225,0.731 0.2365,1.44588 0.74175,1.97263c8.20494,8.59194 19.23713,13.32194 31.06481,13.32194c12.36519,0 24.14988,-5.36156 32.336,-14.71406c0.97825,-1.118 0.86538,-2.81381 -0.24994,-3.79206zM86,123.625c-9.40625,0 -18.24006,-3.42119 -25.16575,-9.69381l8.14044,-7.138c4.7945,3.93719 10.75269,6.08181 17.02531,6.08181c6.837,0 13.38912,-2.623 18.35294,-7.27506l8.10013,7.10306c-7.03588,6.97137 -16.5335,10.922 -26.45306,10.922z" fill="url(#color-5_ve4jBhVVCEkn_gr5)"></path><path d="M64.59138,87.74956c-0.04569,-0.57781 -0.09137,-1.15831 -0.09137,-1.74956c0,-9.07569 5.762,-17.21075 14.33244,-20.24762c1.075,-0.37894 1.79256,-1.39481 1.79256,-2.53431v-16.72431c0,-0.80625 -0.36281,-1.5695 -0.98631,-2.08013c-0.62619,-0.51062 -1.44588,-0.70412 -2.236,-0.55362c-19.93319,4.05006 -34.40269,21.77413 -34.40269,42.14c0,5.03638 0.90837,10.04856 2.70363,14.8995c0.30638,0.83044 1.00244,1.45663 1.85975,1.67431c0.21769,0.05644 0.44075,0.08062 0.66112,0.08062c0.645,0 1.27656,-0.23112 1.77106,-0.6665l13.68744,-12.00238c0.63963,-0.56169 0.97556,-1.38944 0.90838,-2.236zM49.55213,95.22887c-0.78206,-3.04225 -1.17712,-6.13287 -1.17712,-9.22887c0,-16.7055 11.12087,-31.37656 26.875,-36.06625v11.4595c-9.72069,4.24356 -16.125,13.90244 -16.125,24.60675c0,0.27681 0.00537,0.54825 0.01881,0.81969z" fill="url(#color-6_ve4jBhVVCEkn_gr6)"></path></g></g></svg>
